<svg width="97" height="97" viewBox="0 0 97 97" fill="none" xmlns="http://www.w3.org/2000/svg">
<rect width="97" height="97" fill="url(#paint0_linear_113_81)"/>
<rect x="35.0827" y="15.0539" width="8.51321" height="23.4515" rx="4.25661" transform="rotate(45 35.0827 15.0539)" fill="#F2F2F2"/>
<rect x="41.6196" y="25.6824" width="8.51321" height="23.4515" rx="4.25661" transform="rotate(45 41.6196 25.6824)" fill="#F2F2F2"/>
<path d="M76.2791 24.6199C77.5633 24.0155 78.1314 22.467 77.3135 21.3069C75.9062 19.3107 74.0168 17.6835 71.8042 16.5874C68.8193 15.1086 65.4217 14.6835 62.1644 15.3811C58.9071 16.0788 55.9817 17.8582 53.8643 20.4298C51.7468 23.0014 50.5619 26.2139 50.5024 29.5446C50.4428 32.8752 51.5121 36.128 53.5362 38.7737C55.5603 41.4194 58.4202 43.3023 61.6505 44.116C64.8807 44.9297 68.2913 44.6263 71.3273 43.2552C73.5776 42.2389 75.524 40.6803 77.0018 38.7357C77.8606 37.6056 77.3483 36.0378 76.0865 35.3878L73.467 34.0385C72.2051 33.3886 70.676 33.9414 69.5994 34.8663C69.1204 35.2777 68.5823 35.6218 67.9989 35.8853C66.6269 36.5049 65.0856 36.642 63.6258 36.2743C62.1659 35.9065 60.8735 35.0556 59.9588 33.86C59.044 32.6644 58.5608 31.1944 58.5877 29.6892C58.6146 28.184 59.1501 26.7322 60.107 25.57C61.064 24.4079 62.386 23.6037 63.858 23.2884C65.3301 22.9731 66.8655 23.1653 68.2145 23.8336C68.788 24.1177 69.3136 24.4808 69.7775 24.9091C70.8204 25.8719 72.3287 26.4791 73.613 25.8747L76.2791 24.6199Z" fill="#F2F2F2"/>
<path d="M44.2791 61.97C45.5633 61.3656 46.1314 59.817 45.3135 58.657C43.9062 56.6607 42.0168 55.0335 39.8042 53.9374C36.8193 52.4586 33.4217 52.0335 30.1644 52.7312C26.9071 53.4288 23.9817 55.2082 21.8643 57.7798C19.7468 60.3515 18.5619 63.5639 18.5024 66.8946C18.4428 70.2252 19.5121 73.478 21.5362 76.1237C23.5603 78.7694 26.4202 80.6523 29.6505 81.466C32.8807 82.2797 36.2913 81.9763 39.3273 80.6053C41.5776 79.589 43.524 78.0304 45.0018 76.0857C45.8606 74.9556 45.3483 73.3878 44.0865 72.7378L41.467 71.3886C40.2051 70.7386 38.676 71.2914 37.5994 72.2163C37.1204 72.6278 36.5823 72.9719 35.9989 73.2353C34.6269 73.8549 33.0856 73.992 31.6258 73.6243C30.1659 73.2566 28.8735 72.4057 27.9588 71.21C27.044 70.0144 26.5608 68.5444 26.5877 67.0392C26.6146 65.534 27.1501 64.0822 28.107 62.9201C29.064 61.7579 30.386 60.9538 31.858 60.6385C33.3301 60.3232 34.8655 60.5153 36.2145 61.1836C36.788 61.4677 37.3136 61.8309 37.7775 62.2592C38.8204 63.222 40.3287 63.8291 41.613 63.2247L44.2791 61.97Z" fill="#F2F2F2"/>
<rect x="60.2434" y="52.1399" width="8.51321" height="30.0372" rx="4.25661" fill="#F2F2F2"/>
<defs>
<linearGradient id="paint0_linear_113_81" x1="48.5" y1="0" x2="48.5" y2="97" gradientUnits="userSpaceOnUse">
<stop stop-color="#10B981"/>
<stop offset="1" stop-color="#059669"/>
</linearGradient>
</defs>
</svg>
