<svg width="512" height="198" viewBox="0 0 512 198" fill="none" xmlns="http://www.w3.org/2000/svg">
<rect x="88.5406" y="21" width="40.2443" height="110.862" rx="20.1221" transform="rotate(45 88.5406 21)" fill="black"/>
<rect x="119.442" y="71.2434" width="40.2443" height="110.862" rx="20.1221" transform="rotate(45 119.442 71.2434)" fill="black"/>
<path d="M286.255 74.4726C292.326 71.6154 295.011 64.2951 291.145 58.8111C284.492 49.3743 275.561 41.6821 265.101 36.5004C250.99 29.5099 234.929 27.5002 219.531 30.7982C204.133 34.0963 190.304 42.508 180.294 54.6647C170.284 66.8215 164.683 82.0077 164.401 97.7526C164.12 113.498 169.174 128.874 178.743 141.381C188.312 153.888 201.831 162.789 217.101 166.636C232.372 170.482 248.495 169.048 262.846 162.567C273.484 157.762 282.685 150.395 289.672 141.202C293.731 135.859 291.309 128.448 285.344 125.375L272.961 118.997C266.996 115.924 259.768 118.538 254.678 122.91C252.414 124.855 249.87 126.482 247.112 127.727C240.626 130.656 233.34 131.304 226.439 129.566C219.538 127.828 213.429 123.805 209.104 118.153C204.78 112.501 202.496 105.552 202.623 98.4363C202.75 91.3208 205.282 84.4579 209.805 78.964C214.329 73.4701 220.578 69.6687 227.537 68.1783C234.496 66.6878 241.754 67.5961 248.131 70.7552C250.843 72.0985 253.327 73.8151 255.52 75.8397C260.45 80.3912 267.58 83.2613 273.652 80.4041L286.255 74.4726Z" fill="black"/>
<path d="M433.036 74.4726C439.107 71.6154 441.793 64.2951 437.927 58.8111C431.274 49.3743 422.342 41.6821 411.883 36.5004C397.772 29.5099 381.711 27.5002 366.312 30.7982C350.914 34.0963 337.085 42.508 327.076 54.6647C317.066 66.8215 311.464 82.0077 311.183 97.7526C310.901 113.498 315.956 128.874 325.525 141.381C335.093 153.888 348.612 162.789 363.883 166.636C379.153 170.482 395.276 169.048 409.628 162.567C420.266 157.762 429.467 150.395 436.453 141.202C440.513 135.859 438.091 128.448 432.126 125.375L419.743 118.997C413.778 115.924 406.549 118.538 401.46 122.91C399.196 124.855 396.651 126.482 393.894 127.727C387.408 130.656 380.122 131.304 373.221 129.566C366.32 127.828 360.21 123.805 355.886 118.153C351.562 112.501 349.277 105.552 349.404 98.4363C349.532 91.3208 352.063 84.4579 356.587 78.964C361.11 73.4701 367.36 69.6687 374.319 68.1783C381.277 66.6878 388.536 67.5961 394.913 70.7552C397.624 72.0985 400.108 73.8151 402.301 75.8397C407.232 80.3912 414.362 83.2613 420.433 80.4041L433.036 74.4726Z" fill="black"/>
<rect x="457.953" y="28.0032" width="40.2443" height="141.994" rx="20.1221" fill="black"/>
</svg>
